<mxfile host="app.diagrams.net" agent="Mozilla/5.0 (Windows NT 10.0; Win64; x64) AppleWebKit/537.36 (KHTML, like Gecko) Chrome/129.0.0.0 Safari/537.36" version="24.7.16" pages="3">
  <diagram name="Nivel 0" id="CtEMc4vvDd8kpJ2ZCNQz">
    <mxGraphModel dx="2694" dy="1936" grid="1" gridSize="10" guides="1" tooltips="1" connect="1" arrows="1" fold="1" page="1" pageScale="1" pageWidth="827" pageHeight="1169" math="0" shadow="0">
      <root>
        <mxCell id="0" />
        <mxCell id="1" parent="0" />
        <mxCell id="O0hYwn-8YvZrBXnablrd-2" value="0&lt;div&gt;Area: Importaciones&lt;/div&gt;" style="ellipse;whiteSpace=wrap;html=1;aspect=fixed;fontStyle=1" vertex="1" parent="1">
          <mxGeometry x="320" y="160" width="120" height="120" as="geometry" />
        </mxCell>
        <mxCell id="O0hYwn-8YvZrBXnablrd-3" value="Compañia de Transporte Maritimo" style="rounded=0;whiteSpace=wrap;html=1;fontStyle=1" vertex="1" parent="1">
          <mxGeometry x="270" y="-190" width="120" height="60" as="geometry" />
        </mxCell>
        <mxCell id="O0hYwn-8YvZrBXnablrd-4" value="Compañia de Transporte Terrestre" style="rounded=0;whiteSpace=wrap;html=1;fontStyle=1" vertex="1" parent="1">
          <mxGeometry x="-150" y="340" width="120" height="60" as="geometry" />
        </mxCell>
        <mxCell id="O0hYwn-8YvZrBXnablrd-5" value="Empresa Exportadora" style="rounded=0;whiteSpace=wrap;html=1;fontStyle=1" vertex="1" parent="1">
          <mxGeometry x="-80" y="-40" width="120" height="60" as="geometry" />
        </mxCell>
        <mxCell id="O0hYwn-8YvZrBXnablrd-9" value="Aduana" style="rounded=0;whiteSpace=wrap;html=1;fontStyle=1" vertex="1" parent="1">
          <mxGeometry x="790" y="20" width="120" height="60" as="geometry" />
        </mxCell>
        <mxCell id="O0hYwn-8YvZrBXnablrd-10" value="Servicio Aduanero" style="rounded=0;whiteSpace=wrap;html=1;fontStyle=1" vertex="1" parent="1">
          <mxGeometry x="390" y="540" width="110" height="75" as="geometry" />
        </mxCell>
        <mxCell id="O0hYwn-8YvZrBXnablrd-13" value="&lt;b&gt;Nivel 0&amp;nbsp;&lt;/b&gt;" style="text;html=1;align=center;verticalAlign=middle;whiteSpace=wrap;rounded=0;" vertex="1" parent="1">
          <mxGeometry y="-290" width="60" height="30" as="geometry" />
        </mxCell>
        <mxCell id="O0hYwn-8YvZrBXnablrd-14" value="" style="curved=1;endArrow=classic;html=1;rounded=0;" edge="1" parent="1" source="O0hYwn-8YvZrBXnablrd-4" target="O0hYwn-8YvZrBXnablrd-2">
          <mxGeometry width="50" height="50" relative="1" as="geometry">
            <mxPoint x="180" y="290" as="sourcePoint" />
            <mxPoint x="220" y="250" as="targetPoint" />
            <Array as="points">
              <mxPoint x="90" y="360" />
            </Array>
          </mxGeometry>
        </mxCell>
        <mxCell id="O0hYwn-8YvZrBXnablrd-15" value="" style="curved=1;endArrow=classic;html=1;rounded=0;entryX=0.5;entryY=0;entryDx=0;entryDy=0;" edge="1" parent="1" source="O0hYwn-8YvZrBXnablrd-3" target="O0hYwn-8YvZrBXnablrd-2">
          <mxGeometry width="50" height="50" relative="1" as="geometry">
            <mxPoint x="310" y="143" as="sourcePoint" />
            <mxPoint x="497" y="60" as="targetPoint" />
            <Array as="points">
              <mxPoint x="400" y="70" />
            </Array>
          </mxGeometry>
        </mxCell>
        <mxCell id="O0hYwn-8YvZrBXnablrd-17" value="" style="curved=1;endArrow=classic;html=1;rounded=0;entryX=0.5;entryY=1;entryDx=0;entryDy=0;exitX=0;exitY=0.5;exitDx=0;exitDy=0;" edge="1" parent="1" source="O0hYwn-8YvZrBXnablrd-10" target="O0hYwn-8YvZrBXnablrd-2">
          <mxGeometry width="50" height="50" relative="1" as="geometry">
            <mxPoint x="330" y="400" as="sourcePoint" />
            <mxPoint x="340" y="270" as="targetPoint" />
            <Array as="points">
              <mxPoint x="350" y="440" />
            </Array>
          </mxGeometry>
        </mxCell>
        <mxCell id="O0hYwn-8YvZrBXnablrd-19" value="" style="curved=1;endArrow=classic;html=1;rounded=0;entryX=0.75;entryY=0;entryDx=0;entryDy=0;exitX=1;exitY=1;exitDx=0;exitDy=0;" edge="1" parent="1" source="O0hYwn-8YvZrBXnablrd-2" target="O0hYwn-8YvZrBXnablrd-10">
          <mxGeometry width="50" height="50" relative="1" as="geometry">
            <mxPoint x="410" y="280" as="sourcePoint" />
            <mxPoint x="480" y="310" as="targetPoint" />
            <Array as="points">
              <mxPoint x="490" y="330" />
            </Array>
          </mxGeometry>
        </mxCell>
        <mxCell id="O0hYwn-8YvZrBXnablrd-20" value="" style="curved=1;endArrow=classic;html=1;rounded=0;entryX=0.5;entryY=1;entryDx=0;entryDy=0;exitX=0.989;exitY=0.632;exitDx=0;exitDy=0;exitPerimeter=0;" edge="1" parent="1" source="O0hYwn-8YvZrBXnablrd-2" target="O0hYwn-8YvZrBXnablrd-9">
          <mxGeometry width="50" height="50" relative="1" as="geometry">
            <mxPoint x="460" y="260" as="sourcePoint" />
            <mxPoint x="500" y="120" as="targetPoint" />
            <Array as="points">
              <mxPoint x="500" y="250" />
              <mxPoint x="600" y="230" />
              <mxPoint x="700" y="190" />
              <mxPoint x="790" y="130" />
            </Array>
          </mxGeometry>
        </mxCell>
        <mxCell id="O0hYwn-8YvZrBXnablrd-21" value="" style="curved=1;endArrow=classic;html=1;rounded=0;entryX=0;entryY=0.5;entryDx=0;entryDy=0;exitX=0.989;exitY=0.632;exitDx=0;exitDy=0;exitPerimeter=0;strokeColor=none;" edge="1" parent="1">
          <mxGeometry width="50" height="50" relative="1" as="geometry">
            <mxPoint x="440" y="180" as="sourcePoint" />
            <mxPoint x="581" y="244" as="targetPoint" />
            <Array as="points">
              <mxPoint x="461" y="224" />
            </Array>
          </mxGeometry>
        </mxCell>
        <mxCell id="O0hYwn-8YvZrBXnablrd-22" value="" style="curved=1;endArrow=none;html=1;rounded=0;entryX=0.5;entryY=0;entryDx=0;entryDy=0;entryPerimeter=0;endFill=0;startArrow=classic;startFill=1;exitX=0.965;exitY=0.311;exitDx=0;exitDy=0;exitPerimeter=0;" edge="1" parent="1" source="O0hYwn-8YvZrBXnablrd-2" target="O0hYwn-8YvZrBXnablrd-9">
          <mxGeometry width="50" height="50" relative="1" as="geometry">
            <mxPoint x="470" y="180" as="sourcePoint" />
            <mxPoint x="611" y="244" as="targetPoint" />
            <Array as="points">
              <mxPoint x="510" y="110" />
              <mxPoint x="660" y="10" />
              <mxPoint x="800" y="-10" />
            </Array>
          </mxGeometry>
        </mxCell>
        <mxCell id="O0hYwn-8YvZrBXnablrd-26" value="" style="curved=1;endArrow=classic;html=1;rounded=0;entryX=0;entryY=0.5;entryDx=0;entryDy=0;" edge="1" parent="1" source="O0hYwn-8YvZrBXnablrd-5" target="O0hYwn-8YvZrBXnablrd-2">
          <mxGeometry width="50" height="50" relative="1" as="geometry">
            <mxPoint x="-113" y="124" as="sourcePoint" />
            <mxPoint x="273" y="10" as="targetPoint" />
            <Array as="points">
              <mxPoint x="37" y="124" />
            </Array>
          </mxGeometry>
        </mxCell>
        <mxCell id="O0hYwn-8YvZrBXnablrd-27" value="" style="curved=1;endArrow=none;html=1;rounded=0;entryX=0;entryY=0;entryDx=0;entryDy=0;endFill=0;startArrow=classic;startFill=1;" edge="1" parent="1" target="O0hYwn-8YvZrBXnablrd-2">
          <mxGeometry width="50" height="50" relative="1" as="geometry">
            <mxPoint x="40" y="-10" as="sourcePoint" />
            <mxPoint x="367" y="190" as="targetPoint" />
            <Array as="points">
              <mxPoint x="260" y="30" />
            </Array>
          </mxGeometry>
        </mxCell>
        <mxCell id="O0hYwn-8YvZrBXnablrd-28" value="Orden de Compra +&lt;div&gt;Terminos de Compra&lt;/div&gt;" style="text;html=1;align=center;verticalAlign=middle;whiteSpace=wrap;rounded=0;fontStyle=1" vertex="1" parent="1">
          <mxGeometry x="220" y="30" width="130" height="30" as="geometry" />
        </mxCell>
        <mxCell id="O0hYwn-8YvZrBXnablrd-29" style="edgeStyle=orthogonalEdgeStyle;rounded=0;orthogonalLoop=1;jettySize=auto;html=1;exitX=0.5;exitY=1;exitDx=0;exitDy=0;" edge="1" parent="1" source="O0hYwn-8YvZrBXnablrd-28" target="O0hYwn-8YvZrBXnablrd-28">
          <mxGeometry relative="1" as="geometry" />
        </mxCell>
        <mxCell id="O0hYwn-8YvZrBXnablrd-32" value="Factura Comercial + Certificado de Origen + Lista de Empaque&amp;nbsp;&amp;nbsp;" style="text;html=1;align=center;verticalAlign=middle;whiteSpace=wrap;rounded=0;fontStyle=1" vertex="1" parent="1">
          <mxGeometry x="-20" y="130" width="120" height="30" as="geometry" />
        </mxCell>
        <mxCell id="uRx-6sWCcBoYehUpEYJr-1" value="Manifiesto de carga +&lt;div&gt;enlace de seguimiento&lt;/div&gt;" style="text;html=1;align=center;verticalAlign=middle;whiteSpace=wrap;rounded=0;fontStyle=1" vertex="1" parent="1">
          <mxGeometry x="370" y="-50" width="140" height="30" as="geometry" />
        </mxCell>
        <mxCell id="uRx-6sWCcBoYehUpEYJr-2" value="Documentos aduaneros" style="text;html=1;align=center;verticalAlign=middle;whiteSpace=wrap;rounded=0;fontStyle=1" vertex="1" parent="1">
          <mxGeometry x="450" y="360" width="130" height="30" as="geometry" />
        </mxCell>
        <mxCell id="uRx-6sWCcBoYehUpEYJr-3" value="Costo por servicio" style="text;html=1;align=center;verticalAlign=middle;whiteSpace=wrap;rounded=0;fontStyle=1" vertex="1" parent="1">
          <mxGeometry x="240" y="460" width="130" height="30" as="geometry" />
        </mxCell>
        <mxCell id="uRx-6sWCcBoYehUpEYJr-4" value="Costo por servicio" style="text;html=1;align=center;verticalAlign=middle;whiteSpace=wrap;rounded=0;fontStyle=1" vertex="1" parent="1">
          <mxGeometry x="30" y="300" width="130" height="30" as="geometry" />
        </mxCell>
        <mxCell id="uRx-6sWCcBoYehUpEYJr-5" value="Impuestos por pagar" style="text;html=1;align=center;verticalAlign=middle;whiteSpace=wrap;rounded=0;fontStyle=1" vertex="1" parent="1">
          <mxGeometry x="600" y="-25" width="130" height="30" as="geometry" />
        </mxCell>
        <mxCell id="uRx-6sWCcBoYehUpEYJr-6" value="Declaracion Aduanera" style="text;html=1;align=center;verticalAlign=middle;whiteSpace=wrap;rounded=0;fontStyle=1" vertex="1" parent="1">
          <mxGeometry x="697" y="180" width="130" height="30" as="geometry" />
        </mxCell>
      </root>
    </mxGraphModel>
  </diagram>
  <diagram id="V4RNTAmVYvBzb5Rr_QGd" name="Nivel 1">
    <mxGraphModel dx="2181" dy="708" grid="1" gridSize="10" guides="1" tooltips="1" connect="1" arrows="1" fold="1" page="1" pageScale="1" pageWidth="827" pageHeight="1169" math="0" shadow="0">
      <root>
        <mxCell id="0" />
        <mxCell id="1" parent="0" />
        <mxCell id="xVBr88kwPzWR1NWpiG85-1" value="&lt;b&gt;0.1 Emitir orden de Compra&lt;/b&gt;" style="ellipse;whiteSpace=wrap;html=1;aspect=fixed;" vertex="1" parent="1">
          <mxGeometry x="60" y="460" width="100" height="100" as="geometry" />
        </mxCell>
        <mxCell id="ETfG6icH38s1JBTWjNVg-1" value="Compañia de Transporte Terrestre" style="rounded=0;whiteSpace=wrap;html=1;fontStyle=1" vertex="1" parent="1">
          <mxGeometry x="1060" y="120" width="120" height="60" as="geometry" />
        </mxCell>
        <mxCell id="zYK2IDly03wtqqJxrzah-1" value="Empresa Exportadora" style="rounded=0;whiteSpace=wrap;html=1;fontStyle=1" vertex="1" parent="1">
          <mxGeometry x="50" y="120" width="120" height="60" as="geometry" />
        </mxCell>
        <mxCell id="_rXxQUVz0Myq8ors65lC-1" value="Compañia de Transporte Maritimo" style="rounded=0;whiteSpace=wrap;html=1;fontStyle=1" vertex="1" parent="1">
          <mxGeometry x="740" y="120" width="120" height="60" as="geometry" />
        </mxCell>
        <mxCell id="q-bO0Q5M6XmGy7yKdaZe-1" value="Aduana" style="rounded=0;whiteSpace=wrap;html=1;fontStyle=1" vertex="1" parent="1">
          <mxGeometry x="1420" y="130" width="120" height="60" as="geometry" />
        </mxCell>
        <mxCell id="p4pngSH1S2nOtmQAo92k-1" value="Servicio Aduanero" style="rounded=0;whiteSpace=wrap;html=1;fontStyle=1" vertex="1" parent="1">
          <mxGeometry x="1240" y="120" width="110" height="60" as="geometry" />
        </mxCell>
        <mxCell id="pWFfEWIPEMsVTcGBzMFg-1" value="&lt;b&gt;0.2 &lt;span style=&quot;font-size: 14.6667px;&quot;&gt;Dar segumiento al pedido&lt;/span&gt;&lt;/b&gt;" style="ellipse;whiteSpace=wrap;html=1;aspect=fixed;" vertex="1" parent="1">
          <mxGeometry x="727" y="470" width="100" height="100" as="geometry" />
        </mxCell>
        <mxCell id="pWFfEWIPEMsVTcGBzMFg-2" value="&lt;b&gt;0.3&amp;nbsp;&lt;/b&gt;&lt;span style=&quot;font-size:11.0pt;line-height:107%;&lt;br/&gt;font-family:&amp;quot;Calibri&amp;quot;,sans-serif;mso-ascii-theme-font:minor-latin;mso-fareast-font-family:&lt;br/&gt;Calibri;mso-fareast-theme-font:minor-latin;mso-hansi-theme-font:minor-latin;&lt;br/&gt;mso-bidi-font-family:&amp;quot;Times New Roman&amp;quot;;mso-bidi-theme-font:minor-bidi;&lt;br/&gt;mso-ansi-language:ES-DO;mso-fareast-language:EN-US;mso-bidi-language:AR-SA&quot;&gt;Solicitar&lt;br/&gt;servicio aduanero&lt;/span&gt;" style="ellipse;whiteSpace=wrap;html=1;aspect=fixed;" vertex="1" parent="1">
          <mxGeometry x="380" y="470" width="100" height="100" as="geometry" />
        </mxCell>
        <mxCell id="pWFfEWIPEMsVTcGBzMFg-4" value="&lt;b&gt;0.4&amp;nbsp;&lt;span style=&quot;text-indent: -18pt; background-color: initial;&quot;&gt;Recibir productos&lt;br&gt;importados&lt;/span&gt;&lt;/b&gt;&lt;p style=&quot;margin-left:18.0pt;mso-add-space:auto;&lt;br/&gt;text-indent:-18.0pt;mso-list:l0 level1 lfo1&quot; class=&quot;MsoListParagraph&quot;&gt;&lt;/p&gt;" style="ellipse;whiteSpace=wrap;html=1;aspect=fixed;" vertex="1" parent="1">
          <mxGeometry x="1120" y="450" width="100" height="100" as="geometry" />
        </mxCell>
        <mxCell id="pWFfEWIPEMsVTcGBzMFg-5" value="" style="curved=1;endArrow=classic;html=1;rounded=0;entryX=1;entryY=1;entryDx=0;entryDy=0;exitX=0.952;exitY=0.289;exitDx=0;exitDy=0;exitPerimeter=0;" edge="1" parent="1" source="xVBr88kwPzWR1NWpiG85-1" target="zYK2IDly03wtqqJxrzah-1">
          <mxGeometry width="50" height="50" relative="1" as="geometry">
            <mxPoint x="120" y="460" as="sourcePoint" />
            <mxPoint x="170" y="410" as="targetPoint" />
            <Array as="points">
              <mxPoint x="170" y="460" />
              <mxPoint x="210" y="290" />
            </Array>
          </mxGeometry>
        </mxCell>
        <mxCell id="pWFfEWIPEMsVTcGBzMFg-7" value="" style="curved=1;endArrow=none;html=1;rounded=0;entryX=1;entryY=1;entryDx=0;entryDy=0;exitX=0;exitY=0;exitDx=0;exitDy=0;startArrow=classic;startFill=1;endFill=0;" edge="1" parent="1" source="xVBr88kwPzWR1NWpiG85-1">
          <mxGeometry width="50" height="50" relative="1" as="geometry">
            <mxPoint x="40" y="475" as="sourcePoint" />
            <mxPoint x="65" y="180" as="targetPoint" />
            <Array as="points">
              <mxPoint x="65" y="460" />
              <mxPoint x="30" y="300" />
            </Array>
          </mxGeometry>
        </mxCell>
        <mxCell id="pWFfEWIPEMsVTcGBzMFg-11" value="" style="curved=1;endArrow=classic;html=1;rounded=0;entryX=0.75;entryY=1;entryDx=0;entryDy=0;exitX=1;exitY=0;exitDx=0;exitDy=0;startArrow=none;startFill=0;endFill=1;" edge="1" parent="1" source="pWFfEWIPEMsVTcGBzMFg-1" target="_rXxQUVz0Myq8ors65lC-1">
          <mxGeometry width="50" height="50" relative="1" as="geometry">
            <mxPoint x="480" y="479" as="sourcePoint" />
            <mxPoint x="495" y="170" as="targetPoint" />
            <Array as="points">
              <mxPoint x="870" y="400" />
              <mxPoint x="890" y="300" />
            </Array>
          </mxGeometry>
        </mxCell>
        <mxCell id="pWFfEWIPEMsVTcGBzMFg-15" value="&lt;b&gt;Orden de Compra&lt;/b&gt;" style="text;html=1;align=center;verticalAlign=middle;whiteSpace=wrap;rounded=0;" vertex="1" parent="1">
          <mxGeometry x="180" y="350" width="90" height="50" as="geometry" />
        </mxCell>
        <mxCell id="pWFfEWIPEMsVTcGBzMFg-16" value="&lt;b&gt;Factura Comercial + Certificado de Origen + Lista de Empaque&lt;/b&gt;" style="text;html=1;align=center;verticalAlign=middle;whiteSpace=wrap;rounded=0;" vertex="1" parent="1">
          <mxGeometry x="-110" y="240" width="150" height="50" as="geometry" />
        </mxCell>
        <mxCell id="4qhKHDz6VnPCgXfe8u3W-2" value="" style="curved=1;endArrow=none;html=1;rounded=0;entryX=0.25;entryY=1;entryDx=0;entryDy=0;exitX=0;exitY=0;exitDx=0;exitDy=0;startArrow=classic;startFill=1;endFill=0;" edge="1" parent="1" source="pWFfEWIPEMsVTcGBzMFg-1" target="_rXxQUVz0Myq8ors65lC-1">
          <mxGeometry width="50" height="50" relative="1" as="geometry">
            <mxPoint x="380" y="485" as="sourcePoint" />
            <mxPoint x="395" y="180" as="targetPoint" />
            <Array as="points">
              <mxPoint x="710" y="420" />
              <mxPoint x="700" y="310" />
            </Array>
          </mxGeometry>
        </mxCell>
        <mxCell id="re5ZbDhjcuXzG6dIn9EZ-1" value="Manifiesto de carga +&lt;div&gt;enlace de seguimiento&lt;/div&gt;" style="text;html=1;align=center;verticalAlign=middle;whiteSpace=wrap;rounded=0;fontStyle=1" vertex="1" parent="1">
          <mxGeometry x="560" y="290" width="140" height="30" as="geometry" />
        </mxCell>
        <mxCell id="re5ZbDhjcuXzG6dIn9EZ-3" value="" style="endArrow=classic;html=1;rounded=0;entryX=0;entryY=0.5;entryDx=0;entryDy=0;" edge="1" parent="1" target="pWFfEWIPEMsVTcGBzMFg-2">
          <mxGeometry width="50" height="50" relative="1" as="geometry">
            <mxPoint x="160" y="520" as="sourcePoint" />
            <mxPoint x="210" y="470" as="targetPoint" />
          </mxGeometry>
        </mxCell>
        <mxCell id="re5ZbDhjcuXzG6dIn9EZ-4" value="&lt;b&gt;Factura Comercial + Certificado de Origen + Lista de Empaque&lt;/b&gt;" style="text;html=1;align=center;verticalAlign=middle;whiteSpace=wrap;rounded=0;" vertex="1" parent="1">
          <mxGeometry x="220" y="470" width="150" height="50" as="geometry" />
        </mxCell>
      </root>
    </mxGraphModel>
  </diagram>
  <diagram id="nOgX9tCDnKyefHeYRC-r" name="Nivel 2">
    <mxGraphModel dx="1120" dy="460" grid="1" gridSize="10" guides="1" tooltips="1" connect="1" arrows="1" fold="1" page="1" pageScale="1" pageWidth="827" pageHeight="1169" math="0" shadow="0">
      <root>
        <mxCell id="0" />
        <mxCell id="1" parent="0" />
      </root>
    </mxGraphModel>
  </diagram>
</mxfile>
